<?xml version="1.0" standalone="no"?>
<!DOCTYPE svg PUBLIC "-//W3C//DTD SVG 20010904//EN"
 "http://www.w3.org/TR/2001/REC-SVG-20010904/DTD/svg10.dtd">
<svg version="1.0" xmlns="http://www.w3.org/2000/svg"
 width="916.000000pt" height="916.000000pt" viewBox="0 0 916.000000 916.000000"
 preserveAspectRatio="xMidYMid meet">
<metadata>
Created by potrace 1.14, written by Peter Selinger 2001-2017
</metadata>
<g transform="translate(0.000000,916.000000) scale(0.100000,-0.100000)"
fill="#000000" stroke="none">
<path d="M0 4580 l0 -4580 4580 0 4580 0 0 4580 0 4580 -4580 0 -4580 0 0
-4580z m5010 2700 c206 -21 485 -66 525 -85 34 -15 94 -32 168 -45 89 -16 156
-40 152 -53 -3 -6 -1 -17 3 -23 10 -15 52 -28 52 -16 0 5 -10 17 -22 25 -23
16 -23 16 -2 16 12 1 42 -10 68 -24 26 -14 61 -25 78 -25 17 0 49 -9 72 -19
23 -11 73 -34 111 -52 39 -17 78 -39 88 -47 9 -8 17 -13 17 -10 0 13 174 -63
266 -116 54 -31 104 -56 111 -56 6 0 16 -7 21 -16 5 -9 36 -32 69 -53 34 -20
90 -57 125 -84 65 -49 165 -117 171 -117 2 0 33 -28 68 -63 35 -35 84 -80 109
-101 36 -31 39 -35 15 -24 -30 15 -132 46 -215 66 -25 6 -90 16 -145 22 -105
12 -336 43 -445 61 -99 16 -302 39 -430 49 -63 5 -153 14 -200 19 -279 35
-639 -19 -728 -107 -9 -9 -28 -26 -42 -37 -30 -25 -60 -66 -87 -120 -22 -43
-39 -159 -48 -320 -3 -55 -8 -116 -11 -136 l-5 -37 -82 -3 c-45 -2 -185 -4
-312 -4 l-230 0 -6 95 c-9 128 -20 248 -24 268 -27 134 -57 196 -129 267 -83
83 -171 112 -399 136 -195 19 -420 0 -847 -71 -63 -11 -135 -22 -160 -25 -25
-3 -81 -12 -125 -20 -44 -7 -107 -16 -140 -19 -69 -6 -296 -49 -340 -64 -93
-31 -138 -43 -143 -37 -18 18 308 268 480 368 26 15 53 33 60 40 29 27 168
108 287 167 9 4 48 24 88 44 82 41 93 44 86 16 -6 -23 0 -25 29 -9 11 6 35 13
52 16 45 7 131 59 163 98 29 35 86 58 263 106 41 12 89 25 105 29 121 34 229
60 248 60 12 0 35 7 51 15 17 9 55 15 96 15 37 0 85 6 106 14 22 7 86 16 144
19 58 3 95 3 82 -1 -25 -8 -31 -28 -7 -26 8 1 29 2 46 3 26 1 29 3 20 15 -10
12 -3 15 41 20 129 14 425 12 588 -4z m-3429 -176 c72 -37 79 -196 11 -233
-27 -14 -136 -8 -157 9 -65 54 -54 201 18 230 35 14 95 11 128 -6z m1519 -134
c0 -5 -7 -10 -16 -10 -8 0 -12 5 -9 10 3 6 10 10 16 10 5 0 9 -4 9 -10z
m-1196 -232 c43 -61 -9 -129 -78 -102 -24 9 -31 69 -12 99 21 33 69 34 90 3z
m6221 -260 c72 -169 110 -308 131 -477 16 -131 19 -436 4 -526 -5 -33 -12 -84
-15 -114 -6 -54 -9 -70 -39 -201 -15 -66 -96 -261 -120 -289 -7 -9 -39 -59
-71 -111 -33 -52 -73 -109 -89 -126 -17 -16 -51 -55 -75 -85 -72 -87 -300
-279 -333 -279 -11 0 -10 43 1 72 5 13 35 48 66 78 63 60 95 104 144 195 18
33 37 65 41 70 11 14 55 147 75 224 21 89 42 235 50 361 8 135 -17 556 -35
574 -10 10 -21 -24 -24 -76 -2 -18 -8 -78 -14 -133 -6 -55 -16 -152 -22 -215
-6 -63 -17 -140 -25 -170 -7 -30 -16 -71 -19 -90 -13 -86 -134 -383 -183 -448
-14 -18 -26 -32 -28 -30 -1 2 8 46 21 98 54 212 75 381 75 585 -1 293 -7 335
-74 530 -54 160 -54 158 0 202 26 21 72 61 103 88 31 28 93 79 137 115 71 58
109 87 249 193 20 15 40 27 44 27 4 0 15 -19 25 -42z m-6949 -180 c30 -23 289
-258 357 -324 34 -33 38 -41 32 -68 -4 -17 -8 -40 -10 -51 -2 -11 -12 -45 -24
-75 -27 -71 -27 -87 0 -32 28 55 35 48 14 -14 -9 -26 -16 -80 -17 -121 0 -55
-4 -73 -14 -73 -8 0 -14 6 -14 14 0 8 -3 22 -7 32 -4 12 -3 15 5 10 16 -10 15
5 -2 27 -8 10 -20 15 -29 11 -8 -3 -18 -1 -22 5 -3 6 -1 11 5 11 6 0 8 5 4 12
-9 14 -8 146 1 173 6 19 6 19 -8 3 -34 -42 -29 -394 7 -508 14 -45 14 -45 21
-16 4 15 8 59 9 97 0 37 4 60 8 51 6 -15 7 -15 7 -1 1 9 7 22 15 28 7 6 23 39
36 74 12 34 30 80 40 102 10 22 29 66 41 98 13 31 26 57 31 57 11 0 10 -14 -6
-57 -15 -40 -26 -83 -51 -203 -9 -41 -21 -93 -26 -115 -16 -62 -22 -272 -11
-355 20 -147 95 -431 132 -500 19 -36 3 -34 -22 3 -13 19 -43 63 -67 98 -25
35 -59 97 -77 139 -17 41 -45 104 -63 139 -43 89 -76 233 -106 456 -34 265
-47 345 -56 345 -4 0 -10 -35 -14 -77 -3 -43 -11 -121 -16 -173 -9 -88 -6
-273 7 -400 18 -177 121 -444 217 -562 24 -29 48 -62 54 -72 6 -11 68 -77 139
-148 141 -142 144 -163 9 -77 -56 36 -126 98 -231 205 -147 149 -221 244 -294
379 -16 30 -34 62 -39 72 -49 87 -124 315 -136 413 -3 25 -8 61 -10 80 -39
294 -39 443 0 665 15 81 52 171 86 207 42 44 56 46 95 16z m2476 -219 c124
-27 167 -67 189 -181 14 -75 39 -744 29 -797 -9 -49 -31 -82 -81 -123 -45 -36
-119 -57 -249 -69 -58 -5 -159 -18 -225 -28 -132 -22 -358 -55 -475 -71 -41
-5 -102 -14 -135 -20 -33 -5 -105 -17 -159 -26 -72 -12 -125 -15 -189 -10
-136 10 -169 35 -211 156 -35 99 -61 262 -82 495 -24 284 -14 348 71 426 57
53 72 62 155 87 109 34 428 86 655 107 88 8 176 18 195 22 59 11 341 40 402
42 31 0 81 -4 110 -10z m2323 -8 c66 -7 199 -21 295 -31 96 -11 213 -22 260
-25 91 -7 286 -38 335 -54 17 -5 63 -20 104 -32 69 -22 75 -26 115 -84 70 -99
71 -106 69 -330 -2 -202 -24 -447 -49 -540 -16 -63 -80 -155 -119 -175 -48
-24 -184 -24 -350 -1 -83 11 -192 25 -244 31 -51 6 -96 12 -100 14 -3 2 -64 9
-134 15 -71 7 -138 16 -151 20 -12 5 -89 14 -171 20 -189 14 -309 36 -360 66
-56 33 -105 87 -114 126 -4 19 -5 214 -2 434 6 387 7 401 28 442 26 47 64 77
131 104 39 15 71 17 192 15 80 -1 199 -8 265 -15z m-4281 -536 c3 -17 12 -83
21 -147 8 -65 19 -137 25 -160 5 -24 10 -57 10 -74 0 -42 70 -265 101 -326 5
-10 9 -24 9 -31 0 -8 11 -30 24 -50 13 -19 27 -50 31 -68 4 -18 16 -53 27 -78
26 -60 54 -173 63 -246 4 -33 13 -87 20 -120 7 -33 16 -78 19 -100 11 -92 28
-188 55 -320 31 -150 52 -275 72 -421 13 -99 6 -126 -43 -170 -41 -38 -107
-76 -121 -71 -17 6 -54 399 -62 657 -3 96 -8 200 -10 230 -4 51 -7 98 -21 335
-5 100 -21 187 -40 225 -32 66 -96 258 -124 370 -46 192 -60 282 -67 450 -5
144 -1 187 11 115z m5785 -210 c2 -115 -14 -527 -25 -653 -5 -60 -9 -71 -20
-61 -19 16 -18 208 1 314 8 44 14 132 15 196 0 166 12 369 20 339 4 -14 8 -74
9 -135z m-2539 -107 c0 -24 5 -118 10 -209 13 -233 33 -289 142 -413 38 -44
102 -71 184 -81 114 -12 149 -15 259 -20 66 -3 152 -10 190 -15 39 -6 142 -19
230 -30 88 -11 228 -29 310 -40 83 -11 202 -26 265 -35 63 -8 144 -19 180 -24
293 -43 408 -38 477 22 30 26 38 25 35 -4 -2 -15 -11 -281 -11 -340 -1 -58 -4
-67 -23 -76 -13 -6 -68 -44 -123 -84 -118 -87 -422 -279 -442 -279 -3 0 -17
-8 -31 -19 -15 -10 -79 -40 -142 -65 -112 -46 -133 -55 -213 -90 -21 -9 -42
-16 -47 -16 -6 0 -30 -9 -55 -21 -25 -12 -56 -22 -69 -23 -13 0 -24 -5 -23
-11 1 -5 -9 -11 -23 -11 -14 -1 -65 -14 -115 -29 -164 -50 -229 -67 -315 -80
-47 -7 -93 -16 -102 -20 -10 -4 -18 -3 -18 3 0 11 23 22 48 22 9 0 28 10 42
21 23 18 23 19 3 9 -13 -6 -23 -8 -23 -4 0 3 -6 2 -13 -4 -7 -6 -35 -12 -62
-13 -49 -2 -84 -13 -95 -30 -3 -5 -69 -16 -145 -24 -77 -9 -171 -21 -210 -25
-125 -16 -494 -23 -605 -12 -58 6 -159 16 -225 22 -66 6 -169 18 -230 26 -60
9 -146 19 -190 24 -150 17 -178 22 -164 31 7 4 11 10 9 12 -8 7 -162 39 -226
48 -54 7 -185 52 -231 79 -10 6 -83 35 -163 64 -160 60 -316 136 -400 196 -30
21 -58 39 -61 39 -4 1 -40 24 -80 52 -41 27 -98 66 -128 86 -93 62 -138 114
-146 169 -11 78 -34 171 -55 225 -11 27 -20 57 -20 66 0 14 2 14 20 -2 18 -16
27 -16 102 -6 63 9 509 78 618 96 8 2 40 6 70 10 30 3 89 12 130 20 41 7 82
13 90 13 8 0 62 7 120 15 58 9 132 19 165 22 33 4 76 10 95 15 19 5 94 14 165
20 285 24 332 30 380 44 48 15 125 71 125 91 0 5 11 25 25 45 14 20 36 69 50
110 22 64 27 99 31 240 3 91 10 182 15 203 l10 37 314 0 315 0 0 -42z m2432
-1558 c6 0 17 8 25 18 12 15 13 13 7 -18 -10 -56 -35 -75 -94 -71 l-25 2 25
10 c30 12 41 29 34 51 -3 10 -2 23 3 30 5 10 8 8 11 -4 2 -10 8 -18 14 -18z
m-4155 -476 l72 1 -20 -35 c-12 -19 -29 -40 -39 -47 -10 -7 -20 -31 -24 -60
-3 -27 -15 -73 -26 -103 -11 -30 -20 -62 -20 -70 0 -9 -9 -33 -20 -54 -25 -50
-56 -143 -74 -226 -8 -36 -23 -99 -34 -140 -32 -118 -72 -330 -72 -380 0 -54
24 -103 63 -129 16 -10 25 -21 20 -24 -17 -11 -198 -39 -278 -44 -72 -4 -82
-3 -99 16 -11 12 -24 21 -30 21 -15 0 -91 70 -104 95 -54 107 -27 307 69 510
21 46 39 87 39 91 0 12 103 186 167 284 92 139 114 167 195 253 l74 79 35 -20
c26 -14 52 -19 106 -18z m2863 27 c0 -6 -9 -16 -20 -24 -19 -13 -20 -19 -10
-60 5 -25 16 -61 24 -79 8 -18 34 -80 56 -138 23 -58 48 -115 56 -128 13 -19
53 -175 54 -206 0 -15 -36 36 -63 89 -14 28 -26 46 -27 42 0 -4 11 -30 25 -57
14 -27 25 -58 25 -69 0 -11 5 -23 11 -26 11 -8 19 -26 55 -125 13 -36 19 -66
14 -68 -14 -5 -12 -23 1 -19 11 2 35 -84 54 -188 8 -39 8 -40 16 -12 5 19 0
60 -18 130 -14 56 -26 107 -27 112 -1 6 -4 15 -8 20 -3 6 -9 28 -13 50 -4 22
-12 46 -18 53 -6 8 -6 12 1 12 7 0 3 22 -9 57 -10 31 -19 65 -19 76 0 27 -50
176 -61 183 -5 3 -9 14 -9 25 0 10 -4 19 -9 19 -5 0 -11 10 -14 23 -3 12 -21
60 -41 107 -35 84 -39 110 -11 74 14 -18 14 -17 5 9 -5 16 -10 37 -10 47 0 20
51 54 105 69 33 9 37 8 47 -14 6 -14 19 -27 29 -30 9 -3 29 -20 42 -38 14 -18
36 -44 49 -59 80 -94 220 -321 299 -485 100 -207 122 -284 123 -418 1 -143
-16 -173 -132 -239 -77 -43 -94 -49 -148 -50 -56 -1 -63 2 -93 32 -19 18 -36
30 -40 27 -3 -4 2 -11 12 -16 35 -20 18 -32 -37 -25 -84 9 -91 14 -67 40 25
26 32 129 12 187 -6 20 -13 45 -15 55 -3 10 -8 27 -11 37 -6 13 -2 20 14 24
11 3 18 10 15 15 -3 5 -13 7 -21 3 -13 -4 -13 -3 -4 9 16 19 3 69 -15 62 -7
-3 -16 -1 -19 3 -3 5 2 12 11 15 13 5 15 14 9 44 -3 20 -8 46 -10 57 -2 11 -4
21 -4 23 -1 1 -10 -2 -21 -8 -23 -12 -24 -8 -11 38 6 20 6 32 0 32 -5 0 -9 5
-9 11 0 6 -7 25 -15 42 -22 50 -55 137 -55 148 0 6 4 7 10 4 6 -3 7 1 4 9 -3
9 -11 16 -16 16 -5 0 -8 6 -5 13 2 6 -7 40 -19 75 -13 34 -23 66 -22 70 1 4
-4 18 -10 32 -27 62 -58 199 -49 217 22 41 57 68 57 44z m-275 -148 c3 -14 15
-37 25 -50 10 -13 33 -58 50 -101 31 -75 43 -101 90 -207 28 -65 41 -103 45
-140 3 -29 3 -28 -15 9 -9 21 -20 34 -23 29 -3 -5 0 -22 8 -38 38 -85 82 -221
73 -226 -6 -4 -1 -10 10 -13 13 -4 25 -22 32 -44 6 -20 15 -46 20 -57 35 -79
56 -147 58 -183 l3 -42 -41 0 -40 0 0 42 c0 72 -20 157 -82 347 -32 101 -63
191 -68 200 -5 9 -11 25 -15 36 -4 13 -8 16 -13 8 -10 -16 -84 -5 -79 11 2 6
23 11 45 11 23 0 42 3 42 7 0 4 -21 62 -47 130 -69 184 -103 278 -103 289 0
20 18 7 25 -18z m-1472 -259 c3 -3 2 -16 -3 -28 -4 -13 -5 -28 0 -35 11 -18 0
-51 -16 -51 -10 0 -14 16 -14 60 0 43 4 60 13 60 8 0 16 -3 20 -6z m318 -136
c1 -163 -1 -231 -7 -237 -13 -13 -17 23 -15 141 1 73 -3 139 -8 147 -6 10 -36
14 -107 15 -95 2 -99 3 -98 23 0 12 -5 24 -13 27 -10 4 -13 -34 -13 -200 0
-113 -4 -203 -8 -200 -7 4 -9 247 -3 394 l1 32 135 0 135 0 1 -142z m-411 123
c0 -6 -5 -13 -11 -17 -8 -4 -7 -9 2 -15 24 -14 5 -19 -104 -26 -59 -3 -107
-10 -107 -15 0 -5 5 -6 10 -3 11 7 16 -129 11 -291 -2 -67 0 -94 10 -99 7 -5
14 -4 17 3 2 7 12 8 32 0 16 -5 58 -8 93 -6 62 3 65 2 65 -21 0 -16 -3 -19 -9
-10 -6 10 -15 10 -43 2 -19 -6 -36 -8 -38 -4 -2 4 -34 5 -71 1 -43 -3 -71 -2
-75 5 -8 12 -16 471 -8 491 4 11 30 14 116 14 62 0 110 -4 110 -9z m67 -173
c-2 -13 -4 -3 -4 22 0 25 2 35 4 23 2 -13 2 -33 0 -45z m43 10 c0 -16 -4 -28
-10 -28 -5 0 -10 19 -10 43 0 31 3 38 10 27 5 -8 10 -27 10 -42z m-93 -211
c-1 -45 -3 -5 -3 88 0 94 2 130 3 82 2 -48 2 -125 0 -170z m53 68 c0 -58 -4
-105 -8 -105 -5 0 -8 10 -6 23 1 12 3 59 3 105 1 45 3 82 6 82 3 0 5 -47 5
-105z m27 38 c-2 -16 -4 -5 -4 22 0 28 2 40 4 28 2 -13 2 -35 0 -50z m-220
-59 c-2 -2 -13 -1 -25 3 -14 3 -22 13 -22 26 0 20 1 20 25 -3 14 -13 24 -25
22 -26z m398 39 c-11 -3 -28 -15 -38 -26 -18 -22 -18 -22 -8 -1 6 12 7 24 4
28 -3 3 9 5 28 5 21 -1 26 -3 14 -6z m-171 -38 c-4 -15 -1 -32 6 -40 10 -12 9
-15 -4 -15 -12 0 -16 10 -16 40 0 22 5 40 10 40 6 0 8 -11 4 -25z m206 9 c0
-2 -7 -4 -15 -4 -8 0 -15 4 -15 10 0 5 7 7 15 4 8 -4 15 -8 15 -10z m-95 -34
c-3 -5 -12 -10 -18 -10 -7 0 -6 4 3 10 19 12 23 12 15 0z m1766 -13 c-10 -9
-11 -8 -5 6 3 10 9 15 12 12 3 -3 0 -11 -7 -18z m-1566 -57 c-3 -39 -1 -50 11
-50 10 0 9 -5 -6 -20 -18 -18 -33 -20 -158 -20 l-137 0 3 45 c4 44 22 65 22
25 0 -19 7 -20 120 -20 116 0 120 1 120 21 0 19 -4 21 -35 16 -19 -3 -35 -2
-35 4 0 5 16 9 35 9 28 0 35 4 35 20 0 11 6 20 14 20 11 0 14 -12 11 -50z
m1585 14 c0 -8 -4 -14 -10 -14 -5 0 -10 9 -10 21 0 11 5 17 10 14 6 -3 10 -13
10 -21z m-1880 0 c0 -2 -7 -4 -15 -4 -8 0 -15 4 -15 10 0 5 7 7 15 4 8 -4 15
-8 15 -10z m185 -14 c4 -6 -13 -10 -44 -10 -27 0 -58 -3 -68 -6 -13 -5 -15 -4
-8 4 6 6 30 12 55 15 25 2 48 4 52 5 4 1 10 -2 13 -8z m-230 -10 c3 -5 -1 -10
-9 -10 -9 0 -16 5 -16 10 0 6 4 10 9 10 6 0 13 -4 16 -10z m42 -6 c-3 -3 -12
-4 -19 -1 -8 3 -5 6 6 6 11 1 17 -2 13 -5z m-47 -36 c0 -9 3 -9 11 -1 6 6 18
9 25 6 25 -9 15 -18 -21 -19 -23 0 -35 4 -35 13 0 7 5 13 10 13 6 0 10 -5 10
-12z m0 -44 c0 -8 -4 -12 -10 -9 -5 3 -10 10 -10 16 0 5 5 9 10 9 6 0 10 -7
10 -16z m-137 -11 c-23 -2 -64 -2 -90 0 -26 2 -7 3 42 3 50 0 71 -1 48 -3z
m1894 -133 c-3 -11 -1 -23 4 -26 5 -3 9 -26 9 -51 l0 -45 -107 7 c-60 4 -119
9 -133 10 -14 2 -31 4 -37 4 -7 1 -13 6 -13 12 0 5 4 8 9 4 5 -3 16 2 25 10 8
9 18 16 21 15 42 -2 68 2 56 9 -14 9 -6 11 103 26 46 6 56 12 56 31 0 8 3 14
6 14 4 0 4 -9 1 -20z m-622 -205 c110 -8 268 -19 350 -25 215 -14 275 -21 275
-32 0 -18 -31 -113 -69 -213 -22 -55 -56 -147 -76 -205 -61 -168 -98 -231
-159 -266 -28 -16 -68 -34 -88 -40 -39 -12 -166 -29 -183 -25 -5 2 -46 10 -90
18 -44 8 -93 22 -110 30 -78 40 -204 120 -243 156 -41 37 -44 38 -57 20 -9
-11 -14 -13 -15 -5 0 8 -5 10 -12 6 -8 -5 -9 -2 -5 10 4 10 3 15 -3 11 -6 -3
-10 -2 -10 4 0 17 19 22 42 11 22 -11 22 -10 -2 10 -14 13 -26 17 -28 11 -2
-6 -10 -11 -18 -11 -9 0 -12 -5 -8 -11 4 -7 8 -26 10 -43 2 -25 -4 -17 -33 39
-19 39 -44 80 -56 93 l-20 22 90 0 c49 0 134 7 189 15 54 8 105 15 112 15 7 0
10 5 7 10 -3 6 -28 10 -55 10 -27 0 -69 8 -92 18 -39 15 -85 17 -473 16 l-430
-1 -57 -26 c-92 -42 -88 -56 12 -37 51 10 104 5 95 -9 -2 -4 3 -8 11 -8 8 0
13 6 10 13 -7 17 16 24 80 24 46 0 54 -3 54 -19 0 -10 -7 -21 -15 -25 -8 -3
-12 -12 -9 -19 3 -8 -2 -31 -10 -51 -15 -37 -42 -48 -52 -21 -4 8 -11 15 -16
15 -6 0 -5 -6 2 -15 10 -12 9 -15 -5 -15 -13 0 -16 6 -11 25 5 18 1 27 -13 34
-21 12 -31 5 -30 -18 0 -12 2 -11 8 3 6 16 10 12 18 -22 11 -44 8 -48 -37 -42
-12 1 -12 -1 -3 -11 9 -9 19 -10 35 -2 13 6 27 11 32 11 5 0 12 5 15 11 4 6
12 6 20 2 20 -13 3 -33 -22 -26 -13 4 -17 3 -11 -2 6 -4 14 -18 18 -30 6 -18
-1 -31 -33 -63 -24 -25 -46 -38 -52 -34 -7 4 -9 3 -5 -4 20 -32 -178 -97 -329
-108 -180 -12 -243 -4 -350 45 -87 41 -141 113 -185 250 -17 52 -39 113 -49
135 -11 23 -26 64 -35 91 -8 28 -23 73 -31 100 -16 49 -44 155 -45 166 0 3
111 9 248 13 136 4 265 8 287 10 22 2 110 7 195 11 85 4 157 9 159 11 2 2 266
4 585 4 418 0 637 -4 781 -15z m-478 -617 c-3 -8 -6 -5 -6 6 -1 11 2 17 5 13
3 -3 4 -12 1 -19z"/>
<path d="M4537 7274 c-4 -4 -4 -18 -1 -30 5 -18 2 -24 -10 -24 -9 0 -16 -4
-16 -10 0 -5 7 -10 15 -10 8 0 15 -4 15 -9 0 -5 -35 -9 -77 -10 -55 0 -73 2
-62 9 10 6 33 11 52 12 19 2 33 7 30 11 -3 5 -15 6 -28 3 -14 -4 -28 0 -35 9
-16 19 -30 19 -30 0 0 -9 -14 -16 -37 -20 -76 -12 -85 -16 -79 -30 4 -11 -8
-15 -52 -18 -31 -2 2 -1 73 2 72 3 200 4 285 3 85 -2 152 -1 148 3 -5 6 -58
13 -107 14 -36 2 4 15 42 14 25 0 31 1 15 4 -16 2 -28 10 -28 18 0 7 -13 18
-30 24 -16 5 -30 17 -30 25 0 16 -40 23 -53 10z m48 -84 c3 -5 -1 -10 -10 -10
-9 0 -13 5 -10 10 3 6 8 10 10 10 2 0 7 -4 10 -10z"/>
<path d="M4743 7205 c-56 -16 -37 -25 55 -26 128 -2 174 2 202 17 23 12 21 13
-40 16 -125 5 -185 3 -217 -7z"/>
<path d="M5322 7199 c4 -17 -62 -33 -75 -20 -15 15 -66 14 -82 -3 -12 -11 -7
-14 32 -20 25 -3 61 -6 79 -6 18 0 36 -4 39 -10 11 -18 35 -11 35 10 0 21 24
27 35 9 4 -6 20 -7 38 -3 45 9 49 13 32 31 -20 19 -137 30 -133 12z"/>
<path d="M5040 7192 c0 -12 34 -22 73 -22 19 0 27 4 25 13 -5 14 -98 23 -98 9z"/>
<path d="M4770 7160 c14 -4 32 -8 40 -9 13 -1 13 0 0 9 -8 5 -26 9 -40 9 l-25
-1 25 -8z"/>
<path d="M4980 7159 c0 -5 -12 -9 -27 -9 -34 0 -27 -6 18 -14 27 -5 38 -3 42
8 3 8 -2 16 -14 19 -10 3 -19 1 -19 -4z"/>
<path d="M4848 7153 c12 -2 32 -2 45 0 12 2 2 4 -23 4 -25 0 -35 -2 -22 -4z"/>
<path d="M4060 7139 c0 -5 5 -7 10 -4 6 3 10 8 10 11 0 2 -4 4 -10 4 -5 0 -10
-5 -10 -11z"/>
<path d="M4098 7143 c7 -3 16 -2 19 1 4 3 -2 6 -13 5 -11 0 -14 -3 -6 -6z"/>
<path d="M4018 7133 c7 -3 16 -2 19 1 4 3 -2 6 -13 5 -11 0 -14 -3 -6 -6z"/>
<path d="M5386 7125 c-3 -8 -1 -15 4 -15 6 0 10 7 10 15 0 8 -2 15 -4 15 -2 0
-6 -7 -10 -15z"/>
<path d="M3906 7119 c-22 -5 -42 -12 -45 -15 -6 -6 62 3 109 15 34 9 35 9 5 9
-16 0 -48 -4 -69 -9z"/>
<path d="M5155 7122 c15 -15 151 -26 159 -13 5 7 -8 11 -36 12 -24 0 -63 3
-88 5 -29 4 -41 2 -35 -4z"/>
<path d="M5646 7112 c-8 -14 18 -22 72 -22 34 0 43 3 35 11 -15 15 -99 24
-107 11z"/>
<path d="M5410 7098 c0 -17 36 -35 47 -24 4 3 -1 6 -10 6 -9 0 -21 8 -26 18
-9 15 -10 16 -11 0z"/>
<path d="M5818 7083 c7 -3 16 -2 19 1 4 3 -2 6 -13 5 -11 0 -14 -3 -6 -6z"/>
<path d="M3605 7040 c-19 -8 -19 -9 2 -9 12 -1 25 4 28 9 7 12 -2 12 -30 0z"/>
<path d="M3513 7017 c-24 -6 -43 -15 -43 -20 0 -4 -4 -6 -9 -2 -5 3 -12 1 -16
-5 -9 -15 7 -12 76 15 67 25 64 29 -8 12z"/>
<path d="M3368 6968 c-21 -6 -38 -14 -38 -20 0 -10 25 -4 75 17 35 16 16 17
-37 3z"/>
<path d="M3280 6930 c-18 -12 -2 -12 25 0 13 6 15 9 5 9 -8 0 -22 -4 -30 -9z"/>
<path d="M3190 6891 c-19 -10 -61 -24 -92 -31 -32 -6 -58 -15 -58 -20 0 -5
-32 -19 -70 -31 -39 -12 -68 -24 -66 -26 10 -10 321 101 332 118 8 14 -7 10
-46 -10z"/>
<path d="M6450 6797 c0 -20 123 -88 132 -74 6 9 8 9 8 0 0 -7 10 -10 28 -7 26
5 26 5 7 -10 -19 -15 -19 -15 5 -9 14 3 22 2 18 -2 -4 -5 -3 -14 3 -22 9 -10
15 -10 25 -2 22 18 16 31 -8 18 -22 -12 -22 -11 -8 7 8 10 10 16 5 11 -5 -4
-15 7 -22 24 -11 25 -18 30 -37 27 -16 -3 -23 -1 -20 7 5 13 -71 39 -86 30 -6
-3 -10 -2 -10 2 0 5 -9 9 -20 10 -11 1 -20 -4 -20 -10z"/>
<path d="M6692 6669 c-8 -12 -9 -18 -3 -15 5 4 22 -6 36 -21 21 -23 25 -24 20
-8 l-6 20 11 -20 c13 -24 58 -47 66 -34 3 5 -2 9 -11 9 -9 0 -14 4 -10 9 6 10
-55 61 -73 61 -6 0 -12 5 -14 10 -2 6 -9 1 -16 -11z"/>
<path d="M6840 6461 c21 -12 90 -25 70 -13 -8 5 -31 12 -50 15 -22 4 -29 3
-20 -2z"/>
<path d="M4570 4843 c-24 -9 -61 -46 -71 -72 -14 -36 0 -86 33 -120 25 -25 38
-31 74 -31 94 0 154 116 95 184 -30 35 -92 53 -131 39z"/>
<path d="M2346 4013 c-3 -4 -6 -20 -6 -36 0 -21 4 -28 14 -24 7 3 24 -1 35
-10 12 -8 25 -13 27 -10 10 9 -28 57 -45 57 -12 0 -13 2 -3 9 11 7 11 9 -1 14
-8 3 -18 3 -21 0z"/>
<path d="M6377 3663 c-4 -3 -7 -11 -7 -17 0 -6 5 -5 12 2 6 6 9 14 7 17 -3 3
-9 2 -12 -2z"/>
<path d="M2850 3632 c0 -5 -9 -12 -20 -15 -11 -3 -20 -9 -20 -14 0 -20 27 -44
53 -47 15 -1 30 -6 34 -9 3 -4 22 -7 40 -7 19 0 43 -5 55 -11 18 -10 19 -8 13
12 -6 19 -4 21 16 16 79 -18 91 -19 87 -7 -4 14 -87 39 -128 39 -23 0 -24 -1
-7 -13 9 -7 17 -17 17 -21 0 -4 -7 -2 -16 6 -13 10 -17 10 -25 -2 -6 -10 -9
-11 -9 -1 0 7 -5 10 -10 7 -6 -3 -13 1 -16 9 -3 8 -14 18 -24 21 -10 3 -17 13
-16 22 0 9 -5 18 -11 20 -7 3 -13 0 -13 -5z"/>
<path d="M6315 3622 c-44 -27 -204 -92 -225 -92 -28 0 -87 -28 -93 -44 -8 -20
3 -28 20 -14 19 16 28 2 10 -16 -21 -21 -8 -70 19 -74 18 -2 20 2 16 33 -3 27
0 40 14 50 18 13 17 14 -6 8 -24 -5 -25 -5 -5 10 11 9 48 26 81 37 34 12 93
39 130 62 80 47 79 47 73 53 -3 2 -18 -4 -34 -13z"/>
<path d="M3125 3578 c0 -28 4 -33 25 -36 52 -6 70 -13 70 -27 0 -8 6 -15 14
-15 9 0 12 7 9 20 -4 17 0 20 23 20 27 1 26 2 -10 15 -22 8 -42 13 -45 13 -16
-3 -67 17 -76 29 -8 11 -11 6 -10 -19z"/>
<path d="M3053 2757 c-100 -241 -149 -388 -124 -373 6 4 11 14 11 23 0 8 14
28 31 44 31 29 45 78 26 91 -15 9 12 87 39 115 12 12 18 23 13 25 -5 2 7 45
27 97 19 51 33 95 31 97 -1 2 -26 -52 -54 -119z m-70 -252 c-3 -9 -8 -14 -10
-11 -3 3 -2 9 2 15 9 16 15 13 8 -4z"/>
<path d="M2910 2351 c0 -11 -3 -28 -6 -38 -4 -14 -4 -15 4 -3 17 27 24 60 13
60 -6 0 -11 -9 -11 -19z"/>
<path d="M6347 2444 c-6 -10 9 -42 16 -34 3 3 1 14 -3 24 -3 11 -9 15 -13 10z"/>
<path d="M6552 2236 c-12 -25 -20 -46 -18 -46 9 0 47 71 44 81 -2 5 -13 -10
-26 -35z"/>
<path d="M6280 2221 c0 -6 4 -13 10 -16 6 -3 7 1 4 9 -7 18 -14 21 -14 7z"/>
<path d="M6356 2085 c4 -8 8 -15 10 -15 2 0 4 7 4 15 0 8 -4 15 -10 15 -5 0
-7 -7 -4 -15z"/>
<path d="M6439 2081 c13 -12 28 -21 34 -21 12 0 11 0 -28 24 l-30 17 24 -20z"/>
<path d="M6465 2030 c3 -5 8 -10 11 -10 2 0 4 5 4 10 0 6 -5 10 -11 10 -5 0
-7 -4 -4 -10z"/>
<path d="M6350 2000 c0 -5 5 -10 10 -10 6 0 10 5 10 10 0 6 -4 10 -10 10 -5 0
-10 -4 -10 -10z"/>
<path d="M6462 1914 c10 -10 20 -16 22 -13 3 3 -5 11 -17 18 -21 13 -21 12 -5
-5z"/>
<path d="M5903 2800 c17 -62 42 -130 49 -130 15 0 8 24 -22 85 -17 33 -29 53
-27 45z"/>
<path d="M4605 2770 c-19 -8 -19 -9 3 -9 12 -1 22 4 22 9 0 6 -1 10 -2 9 -2 0
-12 -4 -23 -9z"/>
<path d="M4498 2763 c18 -2 45 -2 60 0 15 2 0 4 -33 4 -33 0 -45 -2 -27 -4z"/>
<path d="M4098 2763 c7 -3 16 -2 19 1 4 3 -2 6 -13 5 -11 0 -14 -3 -6 -6z"/>
<path d="M4073 2303 c15 -2 39 -2 55 0 15 2 2 4 -28 4 -30 0 -43 -2 -27 -4z"/>
<path d="M4390 2300 c0 -12 98 -12 180 0 46 6 36 7 -62 9 -73 0 -118 -3 -118
-9z"/>
<path d="M4177 1504 c-3 -4 1 -20 9 -36 9 -17 18 -27 21 -25 3 3 1 12 -3 19
-12 19 -14 39 -3 32 5 -3 7 -10 4 -15 -4 -5 -1 -9 4 -9 17 0 13 27 -5 34 -19
7 -19 7 -27 0z"/>
<path d="M4015 1490 c-16 -7 -17 -9 -3 -9 9 -1 20 4 23 9 7 11 7 11 -20 0z"/>
<path d="M4280 1466 c0 -2 8 -10 18 -17 15 -13 16 -12 3 4 -13 16 -21 21 -21
13z"/>
<path d="M4200 1425 c0 -5 5 -17 10 -25 5 -8 10 -10 10 -5 0 6 -5 17 -10 25
-5 8 -10 11 -10 5z"/>
<path d="M4260 1331 c0 -7 -3 -10 -7 -8 -5 3 -17 1 -28 -4 -16 -7 -13 -8 13
-6 20 1 36 -4 42 -13 5 -8 10 -10 10 -5 -1 6 -7 19 -15 29 -8 11 -15 14 -15 7z"/>
<path d="M4235 1280 c-3 -6 1 -7 9 -4 18 7 21 14 7 14 -6 0 -13 -4 -16 -10z"/>
</g>
</svg>
